<?xml version="1.0" encoding="utf-8"?>
<!-- Generator: Adobe Illustrator 24.0.2, SVG Export Plug-In . SVG Version: 6.00 Build 0)  -->
<svg version="1.1" id="Capa_1" xmlns="http://www.w3.org/2000/svg" xmlns:xlink="http://www.w3.org/1999/xlink" x="0px" y="0px"
	 viewBox="0 0 1080 1080" style="enable-background:new 0 0 1080 1080;" xml:space="preserve">
<style type="text/css">
	.st0{fill:#CCCBCB;}
	.st1{fill:#3D3B8D;}
	.st2{fill:#FDCB37;}
	.st3{fill:#63509C;}
	.st4{fill:#5ABCB8;}
	.st5{fill:#BFD363;}
	.st6{fill:#ED7341;}
	.st7{fill:#2D2D2D;}
	.st8{fill:#FFFFFF;}
</style>
<path class="st7" d="M164.18,330.72c6.71,0,12.14,0.84,16.3,2.52c4.15,1.68,7.51,3.96,10.07,6.83c2.55,3.04,4.39,6.99,5.51,11.87
	c1.12,4.88,1.68,11.31,1.68,19.3v64.48c0,6.71,1.04,11.27,3.12,13.66c2.08,2.4,5.67,3.6,10.79,3.6v5.03
	c-2.88-0.16-7.23-0.36-13.07-0.6c-5.84-0.24-11.55-0.36-17.14-0.36c-5.75,0-11.43,0.12-17.02,0.36c-5.6,0.24-9.83,0.44-12.71,0.6
	v-5.03c4.32,0,7.31-1.2,8.99-3.6c1.68-2.4,2.52-6.95,2.52-13.66v-74.55c0-3.99-0.32-7.47-0.96-10.43c-0.64-2.96-1.88-5.27-3.72-6.95
	c-1.84-1.68-4.6-2.52-8.27-2.52c-4.16,0-7.99,1.2-11.51,3.6c-3.52,2.4-6.35,5.72-8.51,9.95c-2.16,4.24-3.24,8.99-3.24,14.26v66.64
	c0,6.71,0.88,11.27,2.64,13.66c1.76,2.4,4.71,3.6,8.87,3.6v5.03c-2.56-0.16-6.51-0.36-11.87-0.6c-5.36-0.24-10.83-0.36-16.42-0.36
	c-6.08,0-12.31,0.12-18.7,0.36c-6.39,0.24-11.19,0.44-14.38,0.6v-5.03c5.59,0,9.55-1.2,11.87-3.6c2.31-2.4,3.48-6.95,3.48-13.66
	V360.2c0-7.19-1.08-12.5-3.24-15.94c-2.16-3.43-6.2-5.15-12.11-5.15v-5.03c5.11,0.48,10.07,0.72,14.86,0.72
	c6.71,0,12.98-0.28,18.82-0.84c5.83-0.56,11.23-1.4,16.18-2.52v21.57c3.84-7.99,9.03-13.7,15.58-17.14
	C149.16,332.44,156.35,330.72,164.18,330.72z M236.34,330.72c6.71,0,12.14,0.84,16.3,2.52c4.15,1.68,7.51,3.96,10.07,6.83
	c2.55,3.04,4.39,6.99,5.51,11.87c1.12,4.88,1.68,11.31,1.68,19.3v64.48c0,6.71,1.16,11.27,3.48,13.66c2.31,2.4,6.27,3.6,11.87,3.6
	v5.03c-3.04-0.16-7.59-0.36-13.66-0.6c-6.08-0.24-12.07-0.36-17.98-0.36c-5.75,0-11.43,0.12-17.02,0.36
	c-5.6,0.24-9.83,0.44-12.71,0.6v-5.03c4.31,0,7.31-1.2,8.99-3.6c1.68-2.4,2.52-6.95,2.52-13.66v-74.55c0-3.99-0.36-7.47-1.08-10.43
	c-0.72-2.96-2.08-5.27-4.08-6.95c-2-1.68-5.08-2.52-9.23-2.52c-4.16,0-7.99,1.28-11.51,3.84c-3.52,2.56-6.35,5.99-8.51,10.31
	c-2.16,4.31-3.32,9.11-3.48,14.38l-1.2-14.62c4.31-9.59,10.03-16.06,17.14-19.42C220.55,332.4,228.19,330.72,236.34,330.72z"/>
<path class="st7" d="M345.43,331.44v104.28c0,6.71,1.16,11.27,3.48,13.66c2.31,2.4,6.27,3.6,11.87,3.6v5.03
	c-3.04-0.16-7.55-0.36-13.54-0.6c-5.99-0.24-12.11-0.36-18.34-0.36c-6.23,0-12.55,0.12-18.94,0.36c-6.39,0.24-11.19,0.44-14.38,0.6
	v-5.03c5.59,0,9.55-1.2,11.87-3.6c2.31-2.4,3.48-6.95,3.48-13.66V360.2c0-7.19-1.08-12.5-3.24-15.94c-2.16-3.43-6.2-5.15-12.11-5.15
	v-5.03c5.11,0.48,10.07,0.72,14.86,0.72c6.71,0,12.98-0.28,18.82-0.84C335.08,333.4,340.47,332.56,345.43,331.44z"/>
<path class="st7" d="M323.12,266.53c6.71,0,12.02,1.81,15.94,5.43c3.91,3.62,5.87,8.61,5.87,14.97c0,6.36-1.96,11.35-5.87,14.97
	c-3.92,3.62-9.23,5.43-15.94,5.43s-12.03-1.81-15.94-5.43c-3.92-3.62-5.87-8.61-5.87-14.97c0-6.36,1.96-11.35,5.87-14.97
	C311.1,268.35,316.41,266.53,323.12,266.53z"/>
<path class="st7" d="M459.62,330.72c6.71,0,12.19,0.84,16.42,2.52c4.23,1.68,7.55,3.96,9.95,6.83c2.55,3.04,4.43,6.95,5.63,11.75
	c1.2,4.79,1.8,11.27,1.8,19.42v64.48c0,6.71,1.16,11.27,3.48,13.66c2.31,2.4,6.27,3.6,11.87,3.6v5.03
	c-3.04-0.16-7.59-0.36-13.66-0.6c-6.08-0.24-12.07-0.36-17.98-0.36c-6.08,0-12.03,0.12-17.86,0.36c-5.84,0.24-10.27,0.44-13.3,0.6
	v-5.03c4.79,0,8.15-1.2,10.07-3.6s2.88-6.95,2.88-13.66v-74.55c0-3.99-0.4-7.47-1.2-10.43c-0.8-2.96-2.24-5.27-4.31-6.95
	c-2.08-1.68-5.2-2.52-9.35-2.52c-4.32,0-8.27,1.2-11.87,3.6c-3.6,2.4-6.47,5.72-8.63,9.95c-2.16,4.24-3.24,8.99-3.24,14.26v66.64
	c0,6.71,1,11.27,3,13.66c2,2.4,5.31,3.6,9.95,3.6v5.03c-2.88-0.16-7.07-0.36-12.59-0.6c-5.51-0.24-11.23-0.36-17.14-0.36
	c-6.08,0-12.31,0.12-18.7,0.36c-6.39,0.24-11.19,0.44-14.38,0.6v-5.03c5.59,0,9.55-1.2,11.87-3.6c2.31-2.4,3.48-6.95,3.48-13.66
	V360.2c0-7.19-1.08-12.5-3.24-15.94c-2.16-3.43-6.2-5.15-12.11-5.15v-5.03c5.11,0.48,10.07,0.72,14.86,0.72
	c6.71,0,12.98-0.28,18.82-0.84c5.83-0.56,11.23-1.4,16.18-2.52v21.57c3.99-8.15,9.43-13.9,16.3-17.26
	C443.48,332.4,451.15,330.72,459.62,330.72z"/>
<path class="st7" d="M563.4,328.63c7.03,0,13.22,1.16,18.58,3.48c5.35,2.32,9.55,6.2,12.59,11.63l-2.88,2.64
	c-2.08-3.84-4.84-6.59-8.27-8.27c-3.44-1.68-7.07-2.52-10.91-2.52c-8.15,0-14.62,4.76-19.42,14.26c-4.79,9.51-7.11,24.17-6.95,43.99
	c0,13.59,0.92,24.41,2.76,32.48c1.84,8.07,4.47,13.87,7.91,17.38c3.44,3.52,7.39,5.27,11.87,5.27c5.43,0,10.31-2.16,14.62-6.47
	c4.32-4.31,6.63-10.15,6.95-17.5l1.2,8.39c-2.4,8.47-6.27,14.9-11.63,19.3c-5.36,4.39-12.34,6.59-20.98,6.59
	c-9.43,0-17.86-2.32-25.29-6.95s-13.23-11.78-17.38-21.45c-4.16-9.67-6.23-22.17-6.23-37.52c0-14.54,2.32-26.57,6.95-36.08
	c4.63-9.51,10.99-16.66,19.06-21.45C544.02,331.03,553.17,328.63,563.4,328.63z M590.01,316.44c0-7.19-1.08-33.72-3.24-37.15
	c-2.16-3.43-6.2-5.15-12.11-5.15v-5.03c5.11,0.48,10.07,0.72,14.86,0.72c6.55,0,12.78-0.28,18.7-0.84c5.91-0.56,11.34-1.4,16.3-2.52
	v163.09c0,7.19,1.12,12.51,3.36,15.94c2.24,3.44,6.23,5.15,11.99,5.15v5.03c-4.96-0.48-9.91-0.72-14.86-0.72
	c-6.71,0-12.99,0.24-18.82,0.72c-5.84,0.48-11.23,1.36-16.18,2.64V296.99"/>
<path class="st7" d="M126.53,480.3v185.45c-4-0.64-8.07-0.64-12.22,0c-4.16,0.64-7.99,1.72-11.51,3.24
	c-3.52,1.52-6.47,3.31-8.87,5.39l-3.6-2.16c0.64-2.24,1.08-4.47,1.32-6.71c0.24-2.24,0.36-4.47,0.36-6.71V511.85
	c0-7.19-1.08-12.5-3.24-15.94c-2.16-3.43-6.2-7.94-12.11-7.94v-5.03c5.11,0.48,10.07,0.72,14.86,0.72c6.55,0,12.78-0.28,18.7-0.84
	C116.15,482.25,121.58,481.42,126.53,480.3z M163.21,543.25c12.47,0,22.81,5.08,31.04,15.22c8.23,10.15,12.35,25.77,12.35,46.87
	c0,16.62-2.52,29.96-7.55,40.03c-5.03,10.07-11.71,17.34-20.02,21.81c-8.31,4.47-17.42,6.71-27.33,6.71
	c-6.55,0-12.63-1.12-18.22-3.36c-5.6-2.24-10.39-5.91-14.38-11.03l3.36-1.2c2.88,3.52,6.27,6.15,10.19,7.91
	c3.91,1.76,7.79,2.64,11.63,2.64c8.79,0,15.34-4.95,19.66-14.86c4.31-9.91,6.47-25.01,6.47-45.31c0-13.74-0.84-24.65-2.52-32.72
	c-1.68-8.07-4.12-13.82-7.31-17.26c-3.2-3.43-7.03-5.15-11.51-5.15c-5.6,0-10.71,2.28-15.34,6.83c-4.64,4.55-7.27,10.91-7.91,19.06
	l-1.2-8.39c2.88-9.11,7.75-16.02,14.62-20.74C146.11,545.61,154.1,543.25,163.21,543.25z"/>
<path class="st7" d="M293.34,543.25c5.11,0,9.27,1.08,12.47,3.24c3.19,2.16,5.55,4.91,7.07,8.27c1.52,3.36,2.28,6.87,2.28,10.55
	c0,5.91-1.72,10.75-5.15,14.5c-3.44,3.76-7.95,5.63-13.54,5.63c-5.6,0-9.95-1.4-13.07-4.2c-3.12-2.79-4.67-6.51-4.67-11.15
	c0-4.47,1-8.19,3-11.15c2-2.96,4.51-5.47,7.55-7.55c-2.24-0.64-4.48-0.56-6.71,0.24c-3.04,0.48-5.91,1.72-8.63,3.72
	c-2.72,2-5.03,4.48-6.95,7.43c-1.92,2.96-3.44,6.15-4.55,9.59c-1.12,3.44-1.68,6.75-1.68,9.95v63.53c0,7.67,1.88,12.87,5.63,15.58
	c3.75,2.72,9.39,4.08,16.9,4.08v5.03c-3.68-0.16-9.03-0.36-16.06-0.6c-7.03-0.24-14.38-0.36-22.05-0.36
	c-6.39,0-12.87,0.12-19.42,0.36c-6.55,0.24-11.51,0.44-14.86,0.6v-5.03c5.59,0,9.55-1.2,11.87-3.6c2.31-2.4,3.48-6.95,3.48-13.66
	v-75.51c0-7.19-1.08-12.5-3.24-15.94c-2.16-3.43-6.2-5.15-12.11-5.15v-5.03c5.11,0.48,10.07,0.72,14.86,0.72
	c6.71,0,12.98-0.28,18.82-0.84c5.83-0.56,11.23-1.4,16.18-2.52v22.29c1.92-4.31,4.47-8.23,7.67-11.75
	c3.19-3.51,6.87-6.27,11.03-8.27C283.59,544.25,288.23,543.25,293.34,543.25z"/>
<path class="st7" d="M378.67,543.25c14.06,0,25.09,4.16,33.08,12.47c7.99,8.31,11.99,21.9,11.99,40.75h-78.87l-0.48-4.55h49.14
	c0.16-7.83-0.32-15.06-1.44-21.7c-1.12-6.63-2.88-11.94-5.27-15.94c-2.4-3.99-5.6-5.99-9.59-5.99c-5.6,0-10.35,3.52-14.26,10.55
	c-3.92,7.03-6.27,18.7-7.07,35l0.72,1.44c-0.16,1.92-0.28,3.92-0.36,5.99c-0.08,2.08-0.12,4.24-0.12,6.47
	c0,11.03,1.56,19.98,4.67,26.85c3.12,6.87,7.07,11.87,11.87,14.98c4.79,3.12,9.67,4.67,14.62,4.67c3.36,0,6.83-0.52,10.43-1.56
	c3.6-1.04,7.23-2.96,10.91-5.75c3.67-2.79,7.11-6.75,10.31-11.87l4.32,1.44c-1.92,6.08-4.96,11.99-9.11,17.74
	c-4.16,5.75-9.43,10.47-15.82,14.14c-6.39,3.67-14.07,5.51-23.01,5.51c-10.87,0-20.46-2.32-28.77-6.95
	c-8.31-4.63-14.83-11.66-19.54-21.1c-4.72-9.43-7.07-21.41-7.07-35.96c0-14.86,2.52-27.25,7.55-37.16
	c5.03-9.91,11.99-17.3,20.85-22.17C357.22,545.69,367.33,543.25,378.67,543.25z"/>
<path class="st7" d="M468.08,672.22c-7.19,0-13.18-1.36-17.98-4.08c-4.79-2.72-8.31-6.35-10.55-10.91
	c-2.24-4.55-3.36-9.55-3.36-14.98c0-6.87,1.56-12.47,4.67-16.78c3.12-4.31,7.15-7.83,12.11-10.55c4.95-2.72,10.19-4.95,15.7-6.71
	c5.51-1.76,10.79-3.48,15.82-5.15c5.03-1.68,9.11-3.67,12.22-5.99c3.12-2.31,4.67-5.31,4.67-8.99v-18.7c0-4.15-0.68-7.87-2.04-11.15
	c-1.36-3.27-3.44-5.79-6.23-7.55c-2.8-1.76-6.44-2.64-10.91-2.64c-3.2,0-6.39,0.44-9.59,1.32c-3.2,0.88-5.84,2.36-7.91,4.43
	c4.47,1.6,7.95,4.04,10.43,7.31c2.48,3.28,3.72,6.99,3.72,11.15c0,5.43-1.88,9.75-5.63,12.95c-3.76,3.2-8.19,4.79-13.3,4.79
	c-5.75,0-10.11-1.8-13.06-5.39c-2.96-3.6-4.44-7.95-4.44-13.06c0-4.63,1.16-8.47,3.48-11.51c2.32-3.03,5.55-5.91,9.71-8.63
	c4.47-2.55,9.87-4.55,16.18-5.99c6.31-1.44,13.14-2.16,20.5-2.16c7.35,0,13.98,0.76,19.9,2.28c5.91,1.52,10.87,4.28,14.86,8.27
	c3.67,3.68,6.07,8.19,7.19,13.54c1.12,5.36,1.68,12.11,1.68,20.26v65.2c0,4,0.4,6.75,1.2,8.27c0.8,1.52,2.16,2.28,4.08,2.28
	c1.44,0,2.84-0.4,4.2-1.2c1.36-0.8,2.84-1.76,4.43-2.88l2.4,4.07c-3.36,2.88-7.23,5.08-11.63,6.59c-4.4,1.52-9.31,2.28-14.74,2.28
	c-5.91,0-10.63-0.84-14.14-2.52c-3.52-1.68-6.03-3.96-7.55-6.83c-1.52-2.88-2.28-6.23-2.28-10.07c-3.84,6.08-8.47,10.83-13.9,14.26
	C482.54,670.5,475.91,672.22,468.08,672.22z M485.1,656.88c3.19,0,6.11-0.76,8.75-2.28c2.64-1.52,5.15-4.03,7.55-7.55v-49.14
	c-1.44,2.4-3.44,4.55-5.99,6.47c-2.56,1.92-5.27,3.88-8.15,5.87c-2.88,2-5.63,4.19-8.27,6.59s-4.76,5.36-6.35,8.87
	c-1.6,3.52-2.4,7.75-2.4,12.71c0,6.23,1.36,10.87,4.08,13.9C477.03,655.36,480.62,656.88,485.1,656.88z"/>
<path class="st7" d="M610.48,480.15v168.09c0,6.71,1.08,12.94,3.24,15.34s5.87,3.6,11.15,3.6v5.03c-3.04-0.16-7.47-0.36-13.3-0.6
	c-5.84-0.24-11.79-0.36-17.86-0.36c-6.23,0-12.51,0.12-18.82,0.36c-6.32,0.24-11.07,0.44-14.26,0.6v-5.03c5.59,0,9.55-1.2,11.87-3.6
	c2.31-2.4,3.48-8.63,3.48-15.34V511.61c0-7.19-1.08-15.19-3.24-18.63c-2.16-3.43-6.2-5.15-12.11-5.15v-5.03
	c5.11,0.48,10.07,0.72,14.86,0.72c6.55,0,12.78-0.28,18.7-0.84C600.09,482.11,605.52,481.27,610.48,480.15z M688.5,543.25v4.79
	c-4.96,0.96-9.91,3.04-14.86,6.23c-4.96,3.2-9.86,10.63-14.97,15.58l-18.46,19.18l2.4-4.55l40.99,68.56
	c1.76,2.88,3.6,7.11,5.51,9.35c1.92,2.24,4.23,3.84,6.95,4.79v5.03c-2.4-0.16-5.99-0.36-10.79-0.6c-4.79-0.24-9.59-0.36-14.38-0.36
	c-5.91,0-11.83,0.12-17.74,0.36c-5.91,0.24-10.31,0.44-13.18,0.6v-5.03c3.2,0,5.35-0.76,6.47-2.28c1.12-1.52,0.96-3.48-0.48-5.87
	l-23.73-44.59c-1.92-3.03-3.8-4.99-5.63-5.87c-1.84-0.88-4.28-1.4-7.31-1.56v-4.55c3.36-0.32,6.27-0.88,8.75-1.68
	c2.48-0.8,4.75-2.31,6.83-4.55l18.22-17.74c5.43-5.11,8.15-9.67,8.15-13.66c0-3.99-1.85-10.55-5.28-12.94
	c-3.44-2.4-7.95-3.67-13.54-3.84v-4.79c4.47,0.16,9.35,0.32,14.62,0.48c5.27,0.16,9.75,0.24,13.42,0.24c3.2,0,6.59-0.04,10.19-0.12
	c3.6-0.08,6.99-0.16,10.19-0.24C684.02,543.53,686.58,543.41,688.5,543.25z"/>
<path class="st7" d="M755.74,543.25c14.06,0,25.09,4.16,33.08,12.47c7.99,8.31,11.99,21.9,11.99,40.75h-78.87l-0.48-4.55h49.14
	c0.16-7.83-0.32-15.06-1.44-21.7c-1.12-6.63-2.88-11.94-5.27-15.94c-2.4-3.99-5.6-5.99-9.59-5.99c-5.6,0-10.35,3.52-14.26,10.55
	c-3.92,7.03-6.27,18.7-7.07,35l0.72,1.44c-0.16,1.92-0.28,3.92-0.36,5.99c-0.08,2.08-0.12,4.24-0.12,6.47
	c0,11.03,1.56,19.98,4.67,26.85c3.12,6.87,7.07,11.87,11.87,14.98c4.79,3.12,9.67,4.67,14.62,4.67c3.36,0,6.83-0.52,10.43-1.56
	c3.6-1.04,7.23-2.96,10.91-5.75c3.67-2.79,7.11-6.75,10.31-11.87l4.32,1.44c-1.92,6.08-4.96,11.99-9.11,17.74
	c-4.16,5.75-9.43,10.47-15.82,14.14c-6.39,3.67-14.07,5.51-23.01,5.51c-10.87,0-20.46-2.32-28.77-6.95
	c-8.31-4.63-14.83-11.66-19.54-21.1c-4.72-9.43-7.07-21.41-7.07-35.96c0-14.86,2.52-27.25,7.55-37.16
	c5.03-9.91,11.99-17.3,20.85-22.17C734.29,545.69,744.39,543.25,755.74,543.25z"/>
<path class="st7" d="M890.44,543.25c5.11,0,9.27,1.08,12.47,3.24c3.19,2.16,5.55,4.91,7.07,8.27c1.52,3.36,2.28,6.87,2.28,10.55
	c0,5.91-1.72,10.75-5.15,14.5c-3.44,3.76-7.95,5.63-13.54,5.63c-5.6,0-9.95-1.4-13.07-4.2c-3.12-2.79-4.67-6.51-4.67-11.15
	c0-4.47,1-8.19,3-11.15c2-2.96,4.51-5.47,7.55-7.55c-2.24-0.64-4.48-0.56-6.71,0.24c-3.04,0.48-5.91,1.72-8.63,3.72
	c-2.72,2-5.03,4.48-6.95,7.43c-1.92,2.96-3.44,6.15-4.55,9.59c-1.12,3.44-1.68,6.75-1.68,9.95v63.53c0,7.67,0.59,14.54,4.35,17.26
	c3.75,2.72,9.39,4.08,16.9,4.08v5.03c-3.68-0.16-9.03-0.36-16.06-0.6c-7.03-0.24-14.38-0.36-22.05-0.36
	c-6.39,0-12.87,0.12-19.42,0.36c-6.55,0.24-11.51,0.44-14.86,0.6v-5.03c5.59,0,9.55-1.2,11.87-3.6c2.31-2.4,4.76-8.63,4.76-15.34
	v-75.51c0-7.19-1.08-12.5-3.24-15.94c-2.16-3.43-6.2-5.15-12.11-5.15v-5.03c5.11,0.48,10.07,0.72,14.86,0.72
	c6.71,0,12.98-0.28,18.82-0.84c5.83-0.56,11.23-1.4,16.18-2.52v22.29c1.92-4.31,4.47-8.23,7.67-11.75
	c3.19-3.51,6.87-6.27,11.03-8.27C880.69,544.25,885.33,543.25,890.44,543.25z"/>
<path class="st7" d="M962.1,543.25c6.71,0,12.59,0.84,17.62,2.52c5.03,1.68,8.67,3.32,10.91,4.91c5.43,3.68,8.79,1.28,10.07-7.19
	h5.03c-0.32,4.48-0.56,9.95-0.72,16.42c-0.16,6.47-0.24,15.06-0.24,25.77h-5.03c-0.8-5.91-2.32-11.75-4.55-17.5
	c-2.24-5.75-5.48-10.47-9.71-14.14c-4.24-3.67-9.71-5.51-16.42-5.51c-4.64,0-8.55,1.32-11.75,3.96c-3.2,2.64-4.79,6.43-4.79,11.39
	c0,4.79,1.44,8.99,4.31,12.59c2.88,3.6,6.59,7.03,11.15,10.31c4.55,3.28,9.31,6.75,14.26,10.43c5.27,4,10.07,7.95,14.38,11.87
	c4.32,3.92,7.75,8.19,10.31,12.83c2.55,4.64,3.84,10.15,3.84,16.54c0,7.19-2.08,13.47-6.23,18.82c-4.16,5.36-9.63,9.47-16.42,12.35
	c-6.79,2.88-14.35,4.31-22.65,4.31c-4.79,0-9.07-0.48-12.83-1.44c-3.76-0.96-6.99-2.16-9.71-3.6c-2.08-0.96-4.04-1.88-5.87-2.76
	c-1.84-0.88-3.56-1.64-5.15-2.28c-1.6-0.48-3,0.08-4.2,1.68c-1.2,1.6-2.12,3.84-2.76,6.71h-5.03c0.32-5.11,0.56-11.35,0.72-18.7
	c0.16-7.35,0.24-17.1,0.24-29.25h5.03c0.96,8.63,2.72,16.26,5.27,22.89c2.55,6.63,6.03,11.83,10.43,15.58
	c4.39,3.76,9.95,5.63,16.66,5.63c2.72,0,5.35-0.56,7.91-1.68c2.55-1.12,4.67-2.96,6.35-5.51c1.68-2.55,2.52-5.83,2.52-9.83
	c0-7.03-2.28-12.86-6.83-17.5c-4.55-4.63-10.35-9.67-17.38-15.1c-5.12-4.15-9.95-8.27-14.5-12.35c-4.55-4.08-8.27-8.55-11.15-13.42
	c-2.88-4.87-4.32-10.43-4.32-16.66c0-7.19,1.92-13.26,5.75-18.22c3.84-4.95,8.91-8.67,15.22-11.15
	C948.16,544.49,954.91,543.25,962.1,543.25z"/>
<path class="st7" d="M595.05,718.04c4.54,0,8.03,0.48,10.49,1.44c2.46,0.96,4.57,1.98,6.34,3.06c0.92,0.54,1.67,0.94,2.25,1.21
	c0.58,0.27,1.13,0.4,1.67,0.4c0.77,0,1.33-0.42,1.67-1.27c0.35-0.85,0.63-2.11,0.87-3.81H621c-0.08,1.46-0.17,3.21-0.29,5.25
	c-0.11,2.04-0.19,4.71-0.23,8.02c-0.04,3.31-0.06,7.65-0.06,13.03h-2.65c-0.31-4-1.23-7.88-2.77-11.65
	c-1.54-3.77-3.71-6.86-6.52-9.28c-2.81-2.42-6.25-3.63-10.32-3.63c-3.69,0-6.73,1.04-9.11,3.11c-2.38,2.08-3.58,4.96-3.58,8.65
	c0,3.08,0.77,5.71,2.31,7.9c1.54,2.19,3.79,4.32,6.75,6.4c2.96,2.08,6.55,4.58,10.78,7.5c3.69,2.38,6.99,4.77,9.92,7.15
	c2.92,2.38,5.27,5.07,7.04,8.07c1.77,3,2.65,6.57,2.65,10.73c0,5.07-1.33,9.27-3.98,12.57c-2.65,3.31-6.13,5.79-10.44,7.44
	c-4.31,1.65-9.04,2.48-14.19,2.48c-4.77,0-8.57-0.46-11.42-1.38c-2.84-0.92-5.23-1.88-7.15-2.88c-1.69-1.08-3-1.62-3.92-1.62
	c-0.77,0-1.33,0.42-1.67,1.27c-0.35,0.85-0.63,2.12-0.86,3.81h-2.65c0.15-1.85,0.25-4,0.29-6.46c0.04-2.46,0.08-5.67,0.12-9.63
	c0.04-3.96,0.06-8.98,0.06-15.05h2.65c0.31,5.07,1.17,9.82,2.59,14.24c1.42,4.42,3.61,7.98,6.57,10.67
	c2.96,2.69,6.9,4.04,11.82,4.04c2.69,0,5.09-0.48,7.21-1.44c2.11-0.96,3.82-2.4,5.13-4.32c1.31-1.92,1.96-4.3,1.96-7.15
	c0-3.23-0.75-6.03-2.25-8.42c-1.5-2.38-3.54-4.61-6.11-6.69c-2.58-2.08-5.55-4.19-8.94-6.34c-3.61-2.38-7-4.77-10.15-7.15
	c-3.15-2.38-5.67-5.11-7.55-8.19c-1.88-3.07-2.83-6.73-2.83-10.96c0-4.84,1.21-8.82,3.63-11.94c2.42-3.11,5.61-5.42,9.57-6.92
	C586.38,718.79,590.59,718.04,595.05,718.04z"/>
<path class="st7" d="M702.99,719.54c-0.31,3.92-0.52,7.69-0.63,11.3c-0.12,3.62-0.17,6.38-0.17,8.3c0,1.69,0.04,3.31,0.11,4.84
	c0.08,1.54,0.15,2.85,0.23,3.92h-2.65c-1.23-6.46-2.79-11.57-4.67-15.34c-1.89-3.77-4.13-6.44-6.75-8.02
	c-2.61-1.57-5.69-2.36-9.23-2.36h-2.65v65.85c0,3.08,0.33,5.38,0.98,6.92c0.65,1.54,1.86,2.56,3.63,3.06
	c1.77,0.5,4.34,0.79,7.73,0.87v2.31c-2.38-0.08-5.56-0.15-9.51-0.23c-3.96-0.08-8.09-0.12-12.4-0.12c-4.23,0-8.23,0.04-11.99,0.12
	c-3.77,0.08-6.8,0.16-9.11,0.23v-2.31c3.46-0.08,6.07-0.36,7.84-0.87c1.77-0.5,2.96-1.52,3.58-3.06c0.61-1.54,0.92-3.84,0.92-6.92
	v-65.85h-2.54c-3.54,0-6.61,0.79-9.23,2.36c-2.61,1.58-4.84,4.23-6.69,7.96c-1.84,3.73-3.46,8.86-4.84,15.4h-2.65
	c0.15-1.08,0.25-2.38,0.29-3.92c0.04-1.54,0.06-3.15,0.06-4.84c0-1.92-0.06-4.69-0.17-8.3c-0.12-3.61-0.33-7.38-0.63-11.3
	c3.53,0.08,7.4,0.16,11.59,0.23c4.19,0.08,8.4,0.12,12.63,0.12c4.23,0,8.03,0,11.42,0c3.46,0,7.28,0,11.48,0
	c4.19,0,8.4-0.04,12.63-0.12C695.8,719.69,699.61,719.62,702.99,719.54z"/>
<path class="st7" d="M787.97,719.54v2.31c-2.46,0.31-4.32,0.94-5.59,1.9c-1.27,0.96-2.1,2.48-2.48,4.56c-0.39,2.08-0.58,5-0.58,8.76
	v30.56c0,5-0.35,9.57-1.04,13.72c-0.69,4.15-1.92,7.73-3.69,10.73c-2,3.31-4.92,5.92-8.76,7.84c-3.85,1.92-8.73,2.88-14.65,2.88
	c-3.54,0-7.15-0.4-10.84-1.21c-3.69-0.81-7-2.32-9.92-4.56c-2.46-2.08-4.34-4.42-5.65-7.04c-1.31-2.61-2.19-5.71-2.65-9.28
	c-0.46-3.58-0.69-7.82-0.69-12.74v-36.21c0-2.84-0.21-4.94-0.63-6.29c-0.42-1.34-1.25-2.27-2.48-2.77c-1.23-0.5-3.08-0.79-5.54-0.86
	v-2.31c1.92,0.08,4.52,0.16,7.78,0.23c3.27,0.08,6.67,0.12,10.21,0.12c3.53,0,6.94-0.04,10.21-0.12c3.27-0.08,5.98-0.15,8.13-0.23
	v2.31c-2.61,0.08-4.59,0.37-5.94,0.86c-1.35,0.5-2.25,1.42-2.71,2.77c-0.46,1.35-0.69,3.44-0.69,6.29v43.48
	c0,3.85,0.25,7.25,0.75,10.21c0.5,2.96,1.34,5.42,2.54,7.38c1.19,1.96,2.83,3.44,4.9,4.44c2.08,1,4.65,1.5,7.73,1.5
	c5.38,0,9.59-1.27,12.63-3.81c3.04-2.54,5.19-6.06,6.46-10.55c1.27-4.5,1.9-9.67,1.9-15.51v-30.45c0-4.23-0.27-7.48-0.81-9.75
	c-0.54-2.27-1.6-3.9-3.17-4.9c-1.58-1-3.98-1.65-7.21-1.96v-2.31c1.46,0.08,3.38,0.16,5.77,0.23c2.38,0.08,4.61,0.12,6.69,0.12
	c1.85,0,3.67-0.04,5.48-0.12C785.22,719.69,786.74,719.62,787.97,719.54z"/>
<path class="st7" d="M831.55,719.54c15.15,0,26.41,3.44,33.79,10.32c7.38,6.88,11.07,16.74,11.07,29.58c0,8.38-1.81,15.7-5.42,21.97
	c-3.61,6.27-8.86,11.13-15.74,14.59c-6.88,3.46-15.13,5.19-24.74,5.19c-1.23,0-2.84-0.04-4.84-0.12c-2-0.08-4.08-0.13-6.23-0.17
	c-2.15-0.04-4.08-0.06-5.77-0.06c-3.38,0-6.71,0.02-9.98,0.06c-3.27,0.04-5.86,0.14-7.78,0.29v-2.31c2.46-0.15,4.31-0.46,5.54-0.92
	c1.23-0.46,2.06-1.38,2.48-2.77s0.63-3.46,0.63-6.23v-57.2c0-2.84-0.21-4.94-0.63-6.29c-0.42-1.34-1.27-2.27-2.54-2.77
	c-1.27-0.5-3.1-0.79-5.48-0.86v-2.31c1.92,0.08,4.52,0.17,7.78,0.29c3.27,0.12,6.52,0.14,9.74,0.06c2.77-0.08,5.9-0.15,9.4-0.23
	C826.34,719.58,829.24,719.54,831.55,719.54z M831.43,721.61c-3.54,0-5.84,0.65-6.92,1.96c-1.08,1.31-1.61,3.96-1.61,7.96v57.66
	c0,4,0.56,6.65,1.67,7.96c1.11,1.31,3.44,1.96,6.98,1.96c6.46,0,11.55-1.52,15.28-4.56c3.73-3.04,6.4-7.48,8.01-13.32
	c1.61-5.84,2.42-12.95,2.42-21.34c0-8.61-0.86-15.74-2.59-21.39c-1.73-5.65-4.48-9.88-8.25-12.69
	C842.66,723.02,837.66,721.61,831.43,721.61z"/>
<path class="st7" d="M921.95,719.54v2.31c-2.46,0.08-4.32,0.37-5.59,0.86c-1.27,0.5-2.1,1.42-2.48,2.77
	c-0.39,1.35-0.58,3.44-0.58,6.29v57.2c0,2.77,0.21,4.84,0.63,6.23c0.42,1.38,1.27,2.31,2.54,2.77c1.27,0.46,3.09,0.77,5.48,0.92
	v2.31c-2.08-0.15-4.69-0.25-7.84-0.29c-3.15-0.04-6.34-0.06-9.57-0.06c-3.69,0-7.15,0.02-10.38,0.06c-3.23,0.04-5.84,0.14-7.84,0.29
	v-2.31c2.46-0.15,4.31-0.46,5.54-0.92c1.23-0.46,2.06-1.38,2.48-2.77s0.63-3.46,0.63-6.23v-57.2c0-2.84-0.21-4.94-0.63-6.29
	c-0.42-1.34-1.27-2.27-2.54-2.77c-1.27-0.5-3.1-0.79-5.48-0.86v-2.31c2,0.08,4.61,0.16,7.84,0.23c3.23,0.08,6.69,0.12,10.38,0.12
	c3.23,0,6.42-0.04,9.57-0.12C917.26,719.69,919.88,719.62,921.95,719.54z"/>
<path class="st7" d="M969.92,717.92c8.15,0,15.28,1.65,21.39,4.96c6.11,3.31,10.86,8.05,14.24,14.24
	c3.38,6.19,5.07,13.71,5.07,22.55c0,8.61-1.73,16.15-5.19,22.6c-3.46,6.46-8.27,11.5-14.42,15.11c-6.15,3.61-13.23,5.42-21.22,5.42
	c-8.15,0-15.28-1.65-21.39-4.96c-6.11-3.3-10.86-8.07-14.24-14.3c-3.38-6.23-5.07-13.72-5.07-22.49c0-8.61,1.75-16.15,5.25-22.6
	c3.5-6.46,8.3-11.49,14.41-15.11C954.87,719.73,961.93,717.92,969.92,717.92z M969.46,720c-4.31,0-8.06,1.73-11.24,5.19
	c-3.19,3.46-5.65,8.23-7.38,14.3c-1.73,6.07-2.6,13.11-2.6,21.1c0,8.15,0.98,15.24,2.94,21.28c1.96,6.04,4.61,10.69,7.96,13.95
	c3.34,3.27,7.05,4.9,11.13,4.9c4.3,0,8.05-1.73,11.24-5.19c3.19-3.46,5.65-8.25,7.38-14.36c1.73-6.11,2.59-13.13,2.59-21.05
	c0-8.23-0.98-15.34-2.94-21.33c-1.96-6-4.61-10.63-7.96-13.9C977.25,721.63,973.54,720,969.46,720z"/>
<circle class="st7" cx="511.19" cy="760.16" r="11.37"/>
<path class="st7" d="M77.29,759.75L77.29,759.75c0,1.91,1.19,3.46,2.66,3.46h372.23c1.46,0,2.65-1.55,2.65-3.46l0,0
	c0-1.91-1.19-3.46-2.65-3.46H79.95C78.48,756.29,77.29,757.84,77.29,759.75z"/>
</svg>
